<?xml version="1.0" encoding="utf-8"?>
<!-- Generator: Adobe Illustrator 25.2.0, SVG Export Plug-In . SVG Version: 6.00 Build 0)  -->
<svg version="1.1" id="Layer_1" xmlns="http://www.w3.org/2000/svg" xmlns:xlink="http://www.w3.org/1999/xlink" x="0px" y="0px"
	 width="800px" height="800px" viewBox="0 0 800 800" style="enable-background:new 0 0 800 800;" xml:space="preserve">
<style type="text/css">
	.st0{fill:#3B82F6;}
	.st1{fill:#1D1D1B;}
	.st2{fill:#FFFFFF;}
	.st3{fill:#39A935;}
</style>
<path class="st0" d="M60.7,650.6l78.1-567.2l584.9,89.3l-78.1,567.2L60.7,650.6z"/>
<path class="st1" d="M106.7,696.7l-13.1-565l584-5l13.1,565L106.7,696.7z M148.1,182.7l10.7,462l477.6-4.1l-10.7-462L148.1,182.7z"
	/>
<g>
	<path class="st1" d="M328,595.3c-26.6,15.9-62.9,6.5-85.2-15c-26.7-25.8-37.5-65.4-42.4-101.1c-2.8-20.7-2.4-42,3.5-62
		c5.9-20.1,17.1-38.1,30.2-54.2c13.1-16.1,27.7-32.1,44.6-44.2c13.4-9.6,28.4-16.7,43.7-22.8c31.8-12.6,65.8-20.7,100-19.4
		c60.9,2.2,112.2,37,137.5,92.3c0.1,0.3,0.2,0.5,0.4,0.8c11.8,26.1,18,54.5,22.3,82.9c3.1,20.2,5.2,41.1,0.5,61
		c-6.6,27.7-25.6,46.6-48.2,62.5c-3.3,2.3-6.8,4.7-8.9,8.1c-6.1,9.9,1,23.8-4.4,34c-5.1,9.7-19.3,10.9-28.8,5.5
		c-9.5-5.4-13-15.1-18.4-24.6c-1.2,10.8-6.1,23.3-16.2,27.4c-7,2.9-15.4,0.1-21-5c-5.6-5.2-10.5-12.4-13.3-19.5
		c-2.6,9.3-6,14.6-11.7,20.4c-6.5,6.6-17.7,7.2-25.6,2.2c-7.8-4.9-12.1-14.4-12.1-23.7c3,13.4-9,28-22.7,27.7
		c-13.8-0.4-27.6-20.2-23.8-33.4L328,595.3z"/>
</g>
<g>
	<path class="st2" d="M215.6,374.9c1.1,5.1,7.7,6.5,10.7,2.3c17.8-24.8,39-48.4,64.7-66c21.1-14.5,57.8-21.4,83.3-18.8
		c21.4,2.1,40,15.1,56.6,28.6c11.2,9.1,22.1,18.7,32.6,28.7c0.9,0.9,1.9,1.8,3.1,2c2,0.4,3.8-1.2,5.2-2.6
		c14.7-14.2,29.6-28.7,39.2-46.6c13.1-24.4,15.3-53.7,10.1-80.9c-4.9-25.7-15.8-49.8-28.9-72.4c-1.2-2.1-4.1-2.7-6-1.1
		c-18.7,15.2-40.3,27-63.2,34.6c-4.5,1.5-8.3-3.7-5.5-7.6c7.5-10.5,11.7-23.5,11.4-36.4c0-1.6-1.7-2.6-3.2-1.9
		c-23.7,11.3-47.5,22.8-69.4,37.4c-17.4,11.6-33.7,25.2-46.9,41.4c-5,6.1-14.9,2.1-14.2-5.7c0.5-5.8,1.7-11.8,2.8-18.3
		c0.3-1.8-1.8-3-3.2-1.8l0,0c-1.6,1.4-3.1,2.8-4.7,4.2c-2.9,2.7-5.8,5.6-8.6,8.5c-10.6,11.1-19.5,23.4-28.5,35.7
		c-8.8,12.1-17.4,24.4-24.4,37.7c-5,9.4-9.1,19.3-11.8,29.7c-4,15-4.8,30.7-3.9,46.2c0.4,7.7,1.3,15.5,2.5,23.1
		C215.6,374.7,215.6,374.8,215.6,374.9L215.6,374.9z"/>
</g>
<g>
	<path class="st3" d="M407.4,544.1"/>
</g>
<g>
	<path class="st2" d="M412.3,523.8c-0.5,0.5-1.1,1.1-1.6,1.7c-3,3.5-4.4,7.7-4.1,12.3c0.3,4.3,1.8,9.3,4.9,12.5
		c1.6,1.6,3.9,2.7,6.3,2.5c2.3-0.2,4.3-1.6,6-3.1c1.5-1.3,3-3.2,5.2-3.3c1.7-0.1,2.9,0.9,4.2,1.8c1.4,1,3,1.9,4.7,1.9
		c1.5,0.1,3-0.5,4.4-1.1c1.6-0.8,3.1-1.8,4.1-3.2c0.9-1.4,1.3-3.1,1.4-4.7c0.2-3-0.3-6-1.5-8.7c-1.2-2.9-3.2-5.1-5-7.6
		c-1.6-2.2-3.2-4.4-5.1-6.3c-2-1.9-4.4-3.4-7.1-3.7c-4.3-0.5-8.3,2.2-11.7,4.8C415.7,520.8,413.9,522.2,412.3,523.8z"/>
</g>
<path class="st2" d="M574.8,416.4l-103.8,3.4c-7,0.2-13.2,2.8-18.1,6.8l-58.4,1.8c-5.1-3.6-11.4-5.7-18.3-5.4
	c0,0-103.8,3.4-103.8,3.4c-10,0.3-19.7,5.9-24.8,14.6c-1.1,1.9-2,3.8-3.2,5.6c-3.4,4.7-9.1,8.5-13.4,12.4c-5,4.4-10.1,8.7-15.2,12.9
	c-9.9,8.3-20.7,15.7-30.6,24.2c-4.4,3.8-8.8,7.8-11.2,13c-3,6.4-2.6,13.9-0.9,20.7c2.2,8.9,6.6,30.4,18.9,30.4
	c4.1,0,7.6-2.9,9.9-6.3c1.7-2.6,2.9-5.5,2.9-8.6c0.2-6.9-5.6-11.5-6.4-18.1c-0.7-6.2,1.3-12.1,5.5-16.7c6-6.6,14-12.1,21.1-17.5
	c2.1-1.6,23.7-16.4,23.1-17.6c15.4,35.1,45.6,58.5,79.5,57.4c36.8-1.2,67.2-30.8,78.5-71.6c0.6-2.2,0.9-4.4,1.1-6.5l34.6-1
	c0.3,2.1,0.7,4.2,1.5,6.4c13.9,39.9,46.2,67.5,83,66.3c36.8-1.2,67.2-30.8,78.5-71.6C610.4,434.9,595.2,415.7,574.8,416.4z"/>
</svg>
